<svg xmlns="http://www.w3.org/2000/svg" xmlns:xlink="http://www.w3.org/1999/xlink" version="1.1" x="0px" y="0px" viewBox="0 0 73 91.25" style="enable-background:new 0 0 73 73;" xml:space="preserve"><g><path d="M40.3667564,23.253315c2.4367065-0.3936768,4.022522-2.588501,3.5421143-4.9024658   s-2.8451538-3.8706055-5.2818604-3.4770508c-2.4366455,0.3936768-4.022522,2.588623-3.5420532,4.9025879   C35.5653648,22.090229,37.9301109,23.6469917,40.3667564,23.253315z"/><path d="M45.3438072,36.6074409c0.4036179,0.0748978,0.7920876-0.1852989,0.8745117-0.5869141   c0.0698242-0.3427734-0.0078125-0.6904297-0.0698242-0.9707031c-0.3728561-1.6312408-0.4436874-4.1515064-2.2036133-6.5830078   c-1.4740448-2.0380344-3.671196-3.4678059-6.0395508-3.9443359c-2.3325195-0.4560547-4.6499023,0.046875-7.2910156,1.5917969   c-1.887207,1.1044922-4.2016602,2.7666016-5.3530273,5.84375c-0.0776367,0.2070313-0.0595703,0.4384766,0.0498047,0.6318359   C25.6382675,33.1679192,25.0431995,32.7099075,45.3438072,36.6074409z M31.3716393,27.4091988   c2.1869583-1.2781219,4.3994942-1.9783211,6.8334961-1.2724609c1.7978516,0.5214844,3.4047852,1.6611328,4.5249023,3.2089844   c1.2056084,1.6671848,1.5508842,3.55616,1.8730469,5.5947266l-17.5786133-3.2841797   C27.8530846,29.9843941,29.1987877,28.6806831,31.3716393,27.4091988z"/><path d="M24.3120689,41.0009956c21.1784973,3.9594688,19.8636208,3.7304688,19.9995117,3.7304688   c0.9043694,0,1.0286865-1.3203545,0.137207-1.4873047l-19.8603516-3.7177734   c-0.4091797-0.078125-0.7993164,0.1923828-0.8754883,0.5996094S23.9053307,40.9248238,24.3120689,41.0009956z"/><path d="M37.4849205,50.2734566c0.8931847,0,1.0316544-1.293087,0.159668-1.4824219   c-4.362793-0.953125-8.8149414-1.8095703-13.2329102-2.5449219c-0.4038086-0.0693359-0.7949219,0.2080078-0.862793,0.6171875   c-0.0678711,0.4082031,0.2080078,0.7949219,0.6166992,0.8632813   C32.7752304,49.1580124,37.1426697,50.2734566,37.4849205,50.2734566z"/><path d="M37.7500572,56.3789253l-16.6640625-3.6767578c-0.4057617-0.0859375-0.8046875,0.1669922-0.894043,0.5712891   s0.1665039,0.8046875,0.5708008,0.8935547l16.6640625,3.6767578   C38.3997726,58.0522614,38.7164497,56.5913429,37.7500572,56.3789253z"/><path d="M64.4458618,15.6933784c-0.1447754-0.0805683-0.0870285-0.0392122-2.0527382-0.5461426   c-0.1209717-0.2592773-0.2562256-0.510498-0.4144897-0.7453613c-0.3896484-1.2270508-1.4138184-2.2109375-2.7666626-2.4555664   L18.6426353,4.6347847c-1.9448242-0.3486328-3.8120117,0.9472656-4.1625977,2.8916016l-0.1928101,1.0698242   c-1.8935728-0.1829214-3.5570736,1.2221708-3.9136353,2.8666992c-0.516654,2.3801746,1.6835766,4.5053358,2.6497803,4.145752   l-0.9578247,5.3144531c-1.8228369-0.1036148-3.4295998,1.2610168-3.7803345,2.8796387   c-0.4927311,2.2699623,1.5248718,4.3389301,2.5079346,4.1804199l-1.0212402,5.6665039   c-1.8692293-0.1511574-3.5066986,1.2435303-3.8597407,2.8728027c-0.4860888,2.2362747,1.549572,4.4560928,2.5906367,4.1687012   l-1.0874019,6.0335693c-1.6627197,0.0006104-3.2386475,1.2697754-3.5916138,2.8963623   c-0.3535156,1.6308594,0.5610352,3.4462891,2.0825195,4.1318359c0.0759277,0.0340576,0.1549683,0.0424805,0.2333374,0.050293   L5.8213468,55.569355c-0.2279053,1.2631836,0.2476196,2.4868164,1.1375732,3.2906494   c-0.2703857,1.8786621,3.6491084,2.5838623,4.8745112,2.8184814c11.9519043,2.2885742,23.9038086,4.5769005,35.8556519,6.8654747   c4.2212906,0.8081131,6.173645-0.0273743,7.1997681-5.5581017c0.4719849-2.5439453,0.9439087-5.0878906,1.4158936-7.6317139   c3.6179695,0.0406265,5.7714729-4.118187,4.6836548-7.3366699c-0.2470703-1.3087158-1.1477051-2.4522705-2.4951782-3.0037842   l-0.2566528-0.0718994c0.3275146-1.7652588,0.6550293-3.5306396,0.9825439-5.2960205   c5.132534,0.0509758,6.8376732-8.0543461,2.8068237-10.2844238c-0.1098251-0.0593662-0.1399689-0.0569344-0.8413086-0.3095703   c0.2460327-1.3261719,0.4921265-2.6524658,0.7381592-3.9787598c1.7493896,0.0291557,3.3942146-1.1157894,3.9185829-2.8669434   c0.2006836-0.6728516,0.3876953-1.3554688,0.5576172-2.0292969C66.843811,18.4179878,66.0405884,16.5742378,64.4458618,15.6933784z    M60.6274986,15.8437691l-8.6586914,48.0429688c-0.2036133,1.129879-1.2875977,1.8876915-2.4204102,1.6806602l-36.7289429-6.619381   l9.4585571-52.1335449l36.6678467,6.6083984C60.0767174,13.6269722,60.8311119,14.7129097,60.6274986,15.8437691z    M13.0718346,14.2275581c-0.8857422-0.3994141-1.4384766-1.4970703-1.2324219-2.4462891   c0.3637962-1.6764011,2.2993317-1.7801094,2.1352539-1.7148438c0.015686,0,0.0310669,0.0041504,0.0467529,0.0046387   l-0.7720337,4.2838135C13.1950035,14.3073921,13.1411095,14.2586861,13.0718346,14.2275581z M10.9834557,26.5664253   c-0.8857422-0.3994141-1.4384766-1.4960938-1.2324219-2.4453125c0.1992798-0.9205322,1.1054688-1.6652832,2.0458374-1.7070313   l-0.7557983,4.1936035C11.0201378,26.5957222,11.0059166,26.5765572,10.9834557,26.5664253z M13.2314415,22.9126167   c0.387085,0.3137207,0.6773071,0.7467041,0.7769165,1.2241211c0.2032156,0.971693,1.6712313,0.6647987,1.46875-0.3066406   c-0.2252808-1.0767822-0.9904175-1.9926758-1.9605103-2.4997559l1.9191895-10.6486816   c0.326416,0.3022461,0.5722656,0.6887207,0.661438,1.1152344c0.0844727,0.4052734,0.4853516,0.6650391,0.887207,0.5810547   c0.4057617-0.0849609,0.6655273-0.4824219,0.5805664-0.8876953c-0.2154541-1.03125-0.9234619-1.9211426-1.835144-2.4401855   l0.2267456-1.2580566c0.2036133-1.1298828,1.2871094-1.8847656,2.4204102-1.6806641l2.4251099,0.4370117l-9.4585571,52.133667   l-2.364502-0.4261475c-1.1308589-0.2041016-1.8852534-1.2900391-1.6811519-2.4208984l1.3016963-7.2224121   c0.4697266,0.317749,0.8341064,0.7987061,0.9478149,1.3425293c0.202137,0.972126,1.6713266,0.6643295,1.4677734-0.3066406   c-0.2383423-1.1411133-1.0834351-2.1003418-2.1365967-2.5839844l2.0489502-11.3686523   c0.350647,0.3078613,0.614502,0.7130127,0.7077637,1.1606445c0.2059793,0.9769287,1.6703558,0.6605988,1.46875-0.3066406   c-0.2192993-1.0498047-0.9505615-1.9501953-1.8861084-2.46521L13.2314415,22.9126167z M8.6108971,39.2861519   c-0.88623-0.3994141-1.4389644-1.4960938-1.2329097-2.4453125c0.2055054-0.9470215,1.1585689-1.715332,2.1279902-1.7158203   L8.7394371,39.378315C8.6969566,39.3469429,8.661068,39.3087349,8.6108971,39.2861519z M5.2896085,49.9394722   c0.1858521-0.8564453,0.9834595-1.5599365,1.850647-1.6881104l-0.7332153,4.0682373   C5.5920377,51.8791695,5.0934415,50.8452339,5.2896085,49.9394722z M58.0054283,46.4297066   c1.0541992,0.4345703,1.6850586,1.5234375,1.5336914,2.6464844c-0.090332,0.6669922-0.1953125,1.3457031-0.3154297,2.0146484   c-0.2191772,1.2229004-1.2999268,2.0786133-2.5125732,2.072876c0.4171753-2.2486572,0.8344116-4.4971924,1.2515869-6.7458496   L58.0054283,46.4297066z M61.3496666,30.7021675c0.9658203,0.5634766,1.4477539,1.6953125,1.1748047,2.7753906   c-0.1650391,0.6523438-0.3461914,1.3154297-0.5415039,1.9677734c-0.314209,1.0500488-1.2672729,1.737793-2.3158569,1.7860107   c0.4134521-2.2286377,0.8269653-4.4573975,1.2404175-6.6860352L61.3496666,30.7021675z M64.9448853,19.8095894   c-0.1650391,0.6523438-0.3461914,1.3154297-0.5405273,1.9667969c-0.3030396,1.012085-1.2008705,1.6906738-2.2009315,1.7840576   c0.4889145-2.6353207,0.9866791-4.7613983,0.6888428-6.739624l0.9066162,0.2299805   C64.7451782,17.6191597,65.2153931,18.7392769,64.9448853,19.8095894z"/><path d="M59.6797447,9.1064644c-0.1811523-1.3486328-0.1811523-2.7177734,0-4.0673828   c0.1316833-0.9788899-1.3544235-1.19085-1.4863281-0.1992188c-0.1992188,1.4824219-0.1992188,2.984375,0,4.4658203   C58.3249168,10.2913046,59.8118782,10.0887003,59.6797447,9.1064644z"/><path d="M62.2622643,10.1933784c0.7499847,0,0.6383629-0.5968819,3.2363319-4.6201172   c0.5147324-0.8473825-0.7606812-1.6277618-1.28125-0.78125l-2.5952187,4.2607422   C61.316452,9.5559721,61.682766,10.1933784,62.2622643,10.1933784z"/><path d="M68.1143188,8.9365425l-4.1401405,2.4511719c-0.6556778,0.3880186-0.3762436,1.3955078,0.3828163,1.3955078   c0.3721085,0,0.1721497-0.024313,4.5219727-2.5556641C69.7325897,9.7224007,68.9688187,8.4308643,68.1143188,8.9365425z"/></g><text x="0" y="88" fill="#000000" font-size="5px" font-weight="bold" font-family="'Helvetica Neue', Helvetica, Arial-Unicode, Arial, Sans-serif">Created by Smashing Stocks</text><text x="0" y="93" fill="#000000" font-size="5px" font-weight="bold" font-family="'Helvetica Neue', Helvetica, Arial-Unicode, Arial, Sans-serif">from the Noun Project</text></svg>